<?xml version="1.0" encoding="utf-8"?>
<!-- Generator: Adobe Illustrator 16.0.0, SVG Export Plug-In . SVG Version: 6.00 Build 0)  -->
<!DOCTYPE svg PUBLIC "-//W3C//DTD SVG 1.1//EN" "http://www.w3.org/Graphics/SVG/1.1/DTD/svg11.dtd">
<svg version="1.1" id="Layer_1" xmlns="http://www.w3.org/2000/svg" xmlns:xlink="http://www.w3.org/1999/xlink" viewBox="0 0 17 17">
<g>
	<path d="M8.5,0C3.807,0,0,3.807,0,8.5S3.807,17,8.5,17S17,13.193,17,8.5S13.193,0,8.5,0z M8.5,16.469
		c-4.402,0-7.969-3.567-7.969-7.969c0-4.402,3.567-7.969,7.969-7.969c4.401,0,7.969,3.567,7.969,7.969
		C16.469,12.901,12.901,16.469,8.5,16.469z"/>
	<polygon points="10.579,6.044 8.5,8.123 6.43,6.053 6.053,6.43 8.123,8.5 6.044,10.579 6.421,10.956 8.5,8.877 10.57,10.946 
		10.946,10.57 8.877,8.5 10.956,6.421 	"/>
</g>
</svg>
