<?xml version="1.0" encoding="utf-8"?>
<!-- Generator: Adobe Illustrator 13.0.0, SVG Export Plug-In . SVG Version: 6.00 Build 14948)  -->
<!DOCTYPE svg PUBLIC "-//W3C//DTD SVG 1.1//EN" "http://www.w3.org/Graphics/SVG/1.1/DTD/svg11.dtd">
<svg version="1.1" id="Layer_1" xmlns="http://www.w3.org/2000/svg" xmlns:xlink="http://www.w3.org/1999/xlink" x="0px" y="0px"
	 width="100px" height="100px" viewBox="0 0 100 100" enable-background="new 0 0 100 100" xml:space="preserve">
<path fill="#FFFFFF" d="M70.602,67.625l0.01,0.016c-0.381,0.229-6.266,5.618-20.528,5.603c-14.262-0.017-20.146-5.374-20.528-5.603
	l0.009-0.016c-0.514-0.312-0.874-0.852-0.874-1.497c0-0.985,0.797-1.783,1.783-1.783c0.332,0,0.627,0.117,0.895,0.275l0.021-0.037
	c0.085,0.05,6.215,5.078,18.694,5.094c12.479,0.017,18.608-5.044,18.694-5.094L68.8,64.62c0.267-0.158,0.562-0.275,0.894-0.275
	c0.984,0,1.783,0.798,1.783,1.783C71.477,66.773,71.116,67.312,70.602,67.625z"/>
<path fill="#FFFFFF" d="M96.436,56.706V43.462c0-29.798-9.933-39.73-39.729-39.73H43.462c-29.798,0-39.73,9.932-39.73,39.73v13.243
	c0,29.797,9.932,39.729,39.73,39.729h13.243C86.502,96.436,96.436,86.502,96.436,56.706z M42.952,100
	C10.863,100,0.167,89.305,0.167,57.214V42.952c0-32.089,10.696-42.786,42.786-42.786h14.262C89.305,0.167,100,10.863,100,42.952
	v14.262C100,89.305,89.305,100,57.214,100H42.952z"/>
<path fill="#FFFFFF" d="M71.471,39.385c0,1.967-1.596,3.562-3.562,3.562c-1.968,0-3.562-1.595-3.562-3.562
	c0-1.968,1.595-3.562,3.562-3.562C69.875,35.822,71.471,37.417,71.471,39.385z M67.896,32.256c-3.947,0-7.146,3.2-7.146,7.146
	s3.199,7.146,7.146,7.146s7.146-3.2,7.146-7.146S71.844,32.256,67.896,32.256z"/>
<path fill="#FFFFFF" d="M35.827,39.385c0,1.967-1.596,3.562-3.562,3.562c-1.968,0-3.562-1.595-3.562-3.562
	c0-1.968,1.595-3.562,3.562-3.562C34.231,35.822,35.827,37.417,35.827,39.385z M32.252,32.256c-3.947,0-7.146,3.2-7.146,7.146
	s3.199,7.146,7.146,7.146s7.146-3.2,7.146-7.146S36.2,32.256,32.252,32.256z"/>
</svg>
