<?xml version="1.0" encoding="utf-8"?>
<!-- Generator: Adobe Illustrator 16.0.0, SVG Export Plug-In . SVG Version: 6.00 Build 0)  -->
<!DOCTYPE svg PUBLIC "-//W3C//DTD SVG 1.1//EN" "http://www.w3.org/Graphics/SVG/1.1/DTD/svg11.dtd">
<svg version="1.1" id="Layer_1" xmlns="http://www.w3.org/2000/svg" xmlns:xlink="http://www.w3.org/1999/xlink" x="0px" y="0px"
	 width="18px" height="18px" viewBox="0 0 18 18" enable-background="new 0 0 18 18" xml:space="preserve">
<g>
	<circle fill="#0C0C0C" cx="9.055" cy="8.945" r="4.055"/>
	<path fill="#0C0C0C" d="M15.844,8.222c-0.356-3.183-2.883-5.709-6.066-6.067V0H8.222v2.156C5.04,2.514,2.513,5.04,2.155,8.223H0
		v1.555h2.156c0.358,3.183,2.884,5.709,6.067,6.067V18h1.555v-2.156c3.183-0.356,5.709-2.883,6.067-6.066H18V8.222H15.844z
		 M9,14.556c-3.069,0-5.555-2.487-5.555-5.556c0-3.069,2.487-5.555,5.555-5.555S14.556,5.932,14.556,9S12.069,14.556,9,14.556z"/>
</g>
</svg>
