<?xml version="1.0" encoding="utf-8"?>
<!-- Generator: Adobe Illustrator 16.0.0, SVG Export Plug-In . SVG Version: 6.00 Build 0)  -->
<!DOCTYPE svg PUBLIC "-//W3C//DTD SVG 1.1//EN" "http://www.w3.org/Graphics/SVG/1.1/DTD/svg11.dtd">
<svg version="1.1" id="Layer_1" xmlns="http://www.w3.org/2000/svg" xmlns:xlink="http://www.w3.org/1999/xlink" x="0px" y="0px"
	 width="9px" height="15px" viewBox="0 0 9 15" enable-background="new 0 0 9 15" xml:space="preserve">
<path d="M4.496,0C2.013,0,0,2.039,0,4.559c0,0.726,0.167,1.401,0.464,2.01L4.5,14.983V15l4.06-8.478H8.544
	C8.841,5.87,9,5.253,9,4.527C9,2.008,6.979,0,4.496,0z M4.496,6.836c-1.241,0-2.248-1.021-2.248-2.281s1.006-2.282,2.248-2.282
	c1.242,0,2.248,1.021,2.248,2.282C6.744,5.815,5.738,6.836,4.496,6.836z"/>
</svg>
