<?xml version="1.0" encoding="utf-8"?>
<!-- Generator: Adobe Illustrator 16.0.0, SVG Export Plug-In . SVG Version: 6.00 Build 0)  -->
<!DOCTYPE svg PUBLIC "-//W3C//DTD SVG 1.1//EN" "http://www.w3.org/Graphics/SVG/1.1/DTD/svg11.dtd">
<svg version="1.1" id="Layer_1" xmlns="http://www.w3.org/2000/svg" xmlns:xlink="http://www.w3.org/1999/xlink" x="0px" y="0px"
	 width="15px" height="15px" viewBox="0 0 15 15" enable-background="new 0 0 15 15" xml:space="preserve">
<g>
	<path d="M7.5,0C3.358,0,0,3.358,0,7.5C0,11.643,3.358,15,7.5,15c4.143,0,7.5-3.357,7.5-7.5C15,3.358,11.643,0,7.5,0z M7.5,14.393
		c-3.807,0-6.894-3.085-6.894-6.893S3.693,0.606,7.5,0.606s6.893,3.086,6.893,6.894S11.307,14.393,7.5,14.393z"/>
	<polygon points="7.39,1.985 7.17,2.206 7.17,7.333 3.97,7.335 3.75,7.559 3.75,7.653 3.97,7.885 7.5,7.885 7.72,7.665 7.72,2.206 
		7.5,1.985 	"/>
</g>
</svg>
