<?xml version="1.0" encoding="utf-8"?>
<!-- Generator: Adobe Illustrator 16.0.0, SVG Export Plug-In . SVG Version: 6.00 Build 0)  -->
<!DOCTYPE svg PUBLIC "-//W3C//DTD SVG 1.1//EN" "http://www.w3.org/Graphics/SVG/1.1/DTD/svg11.dtd">
<svg version="1.1" id="Layer_1" xmlns="http://www.w3.org/2000/svg" xmlns:xlink="http://www.w3.org/1999/xlink" x="0px" y="0px"
	 width="15px" height="17px" viewBox="0 0 15 17" enable-background="new 0 0 15 17" xml:space="preserve">
<path d="M11.691,11.661h-0.332l-0.646-0.72c1.271-1.164,2.08-2.818,2.08-4.621C12.794,2.89,9.869,0,6.396,0S0,2.89,0,6.321
	c0,3.429,2.924,6.322,6.396,6.322c1.25,0,2.431-0.377,3.428-1.018l0.543,0.689v0.436l3.31,4.25L15,15.91L11.691,11.661z
	 M1.212,6.321c0-2.889,2.261-5.122,5.185-5.122c2.924,0,5.184,2.233,5.184,5.122c0,2.889-2.26,5.123-5.184,5.123
	C3.474,11.441,1.212,9.21,1.212,6.321z"/>
</svg>
