<?xml version="1.0" encoding="utf-8"?>
<!-- Generator: Adobe Illustrator 16.0.0, SVG Export Plug-In . SVG Version: 6.00 Build 0)  -->
<!DOCTYPE svg PUBLIC "-//W3C//DTD SVG 1.1//EN" "http://www.w3.org/Graphics/SVG/1.1/DTD/svg11.dtd">
<svg version="1.1" id="Layer_1" xmlns="http://www.w3.org/2000/svg" xmlns:xlink="http://www.w3.org/1999/xlink" x="0px" y="0px"
	 width="10px" height="17px" viewBox="0 0 10 17" enable-background="new 0 0 10 17" xml:space="preserve">
<g>
	<path d="M9.699,7.756C9.647,7.724,7.705,6.823,7.705,6.823l-1.44-3.131c0,0-0.242-0.481-0.976-0.603
		C5.05,3.1,4.752,3.033,4.228,3.433c0,0-2.938,1.638-2.958,1.652c-0.062,0.06-0.325,0.171-0.38,0.473
		c-0.012,0.063-0.47,2.628-0.475,2.673C0.332,8.902,1.291,9.21,1.527,8.417c0.02-0.076,0.435-2.456,0.435-2.456l1.604-0.905
		c0,0-0.707,3.43-0.707,3.433c0,0.137-0.543,3.75-0.543,3.75s-2.212,3.618-2.214,3.618c-0.421,0.972,0.556,1.606,1.208,0.72
		c0.029-0.056,2.119-3.446,2.119-3.446s0.158-0.254,0.217-0.604c0.012-0.065,0.379-2.541,0.379-2.541s0.173-0.012,0.598,0.173
		c-0.001,0.014,2.186,2.771,2.186,2.771s0.682,3.418,0.68,3.418c0.193,0.965,1.531,0.84,1.357-0.345
		c-0.01-0.069-0.691-3.461-0.691-3.461s-0.07-0.242-0.178-0.358C7.95,12.152,5.626,9.21,5.626,9.21l0.625-3.002L6.89,7.587
		c0,0,0.07,0.209,0.244,0.272C7.167,7.877,9.21,8.832,9.21,8.836C9.801,9.133,10.362,8.15,9.699,7.756z"/>
	<ellipse cx="5.918" cy="1.458" rx="1.378" ry="1.458"/>
</g>
</svg>
