<?xml version="1.0" encoding="utf-8"?>
<!-- Generator: Adobe Illustrator 16.0.0, SVG Export Plug-In . SVG Version: 6.00 Build 0)  -->
<!DOCTYPE svg PUBLIC "-//W3C//DTD SVG 1.1//EN" "http://www.w3.org/Graphics/SVG/1.1/DTD/svg11.dtd">
<svg version="1.1" id="Layer_1" xmlns="http://www.w3.org/2000/svg" xmlns:xlink="http://www.w3.org/1999/xlink" x="0px" y="0px"
	 width="13px" height="17px" viewBox="0 0 13 17" enable-background="new 0 0 13 17" xml:space="preserve">
<g>
	<path d="M12.978,14.807c-0.177-0.894-0.355-1.789-0.533-2.682c-0.163-0.82-0.34-1.637-0.482-2.459
		c-0.121-0.693-0.371-0.945-1.042-0.937C9.864,8.743,8.808,8.765,7.751,8.782c-0.328,0.004-0.656,0-1.001,0
		C6.743,8.725,6.736,8.69,6.734,8.657C6.642,7.402,6.545,6.147,6.459,4.89C6.441,4.61,6.31,4.407,6.099,4.25
		C5.54,3.829,4.592,3.849,4.054,4.292C3.808,4.491,3.67,4.735,3.695,5.079c0.117,1.663,0.221,3.326,0.334,4.989
		c0.041,0.562,0.422,0.918,0.979,0.912c1.675-0.021,3.35-0.051,5.026-0.072c0.361-0.004,0.287-0.061,0.367,0.306
		c0.287,1.329,0.562,2.66,0.853,3.989c0.117,0.533,0.585,0.836,1.079,0.715C12.8,15.8,13.08,15.323,12.978,14.807z"/>
	<path d="M9.315,12.812c-0.248,0.039-0.367,0.219-0.461,0.443c-0.775,1.908-2.555,2.904-4.535,2.543
		c-2.057-0.375-3.543-2.557-3.192-4.679c0.145-0.871,0.502-1.628,1.097-2.267c0.247-0.267,0.241-0.608,0.005-0.832
		C2,7.804,1.68,7.824,1.441,8.087c-1.172,1.289-1.647,2.812-1.36,4.546c0.421,2.543,2.513,4.34,5.018,4.367
		c0.95-0.012,1.838-0.253,2.648-0.761c1.006-0.63,1.725-1.513,2.145-2.646C10.054,13.16,9.747,12.744,9.315,12.812z"/>
	<path d="M4.717,2.343c0.632,0.004,1.146-0.511,1.157-1.162C5.886,0.544,5.368,0.007,4.738,0C4.109-0.007,3.591,0.513,3.584,1.161
		C3.576,1.806,4.088,2.339,4.717,2.343z"/>
</g>
</svg>
